<svg width="640" height="180" viewBox="0 0 640 180" fill="none" xmlns="http://www.w3.org/2000/svg">
<g clip-path="url(#clip0_1459_38)">
<rect width="640" height="180" fill="white"/>
<path d="M46.6529 84.6684H35.4404C27.7151 84.6684 21.4249 78.3783 21.4249 70.6529V59.4404C21.4249 51.7151 27.7151 45.4249 35.4404 45.4249H46.6529C54.3783 45.4249 60.6684 51.7151 60.6684 59.4404V70.6529C60.6684 78.3783 54.3783 84.6684 46.6529 84.6684ZM97.1089 84.6684H85.8964C78.1711 84.6684 71.8809 78.3783 71.8809 70.6529V59.4404C71.8809 51.7151 78.1711 45.4249 85.8964 45.4249H97.1089C104.834 45.4249 111.124 51.7151 111.124 59.4404V70.6529C111.124 78.3783 104.834 84.6684 97.1089 84.6684ZM43.8498 151.943C43.8498 148.848 41.3382 146.337 38.2435 146.337H27.0311C17.7584 146.337 10.2124 138.791 10.2124 129.518V118.306C10.2124 115.211 7.70086 112.7 4.60622 112.7C1.51159 112.7 -1 115.211 -1 118.306V129.518C-1 144.975 11.5748 157.549 27.0311 157.549H38.2435C41.3382 157.549 43.8498 155.038 43.8498 151.943ZM133.549 129.518V118.306C133.549 115.211 131.038 112.7 127.943 112.7C124.848 112.7 122.337 115.211 122.337 118.306V129.518C122.337 138.791 114.791 146.337 105.518 146.337H94.3058C91.2111 146.337 88.6995 148.848 88.6995 151.943C88.6995 155.038 91.2111 157.549 94.3058 157.549H105.518C120.975 157.549 133.549 144.975 133.549 129.518ZM133.549 62.2435V51.0311C133.549 35.5748 120.975 23 105.518 23H94.3058C91.2111 23 88.6995 25.5116 88.6995 28.6062C88.6995 31.7009 91.2111 34.2124 94.3058 34.2124H105.518C114.791 34.2124 122.337 41.7584 122.337 51.0311V62.2435C122.337 65.3382 124.848 67.8498 127.943 67.8498C131.038 67.8498 133.549 65.3382 133.549 62.2435ZM10.2124 62.2435V51.0311C10.2124 41.7584 17.7584 34.2124 27.0311 34.2124H38.2435C41.3382 34.2124 43.8498 31.7009 43.8498 28.6062C43.8498 25.5116 41.3382 23 38.2435 23H27.0311C11.5748 23 -1 35.5748 -1 51.0311V62.2435C-1 65.3382 1.51159 67.8498 4.60622 67.8498C7.70086 67.8498 10.2124 65.3382 10.2124 62.2435ZM80.2902 118.306C75.6483 118.306 71.8809 122.073 71.8809 126.715C71.8809 131.357 75.6483 135.124 80.2902 135.124C84.9322 135.124 88.6995 131.357 88.6995 126.715C88.6995 122.073 84.9322 118.306 80.2902 118.306ZM102.715 95.8809C98.0731 95.8809 94.3058 99.6483 94.3058 104.29C94.3058 108.932 98.0731 112.7 102.715 112.7C107.357 112.7 111.124 108.932 111.124 104.29C111.124 99.6483 107.357 95.8809 102.715 95.8809ZM80.2902 95.8809C75.6483 95.8809 71.8809 99.6483 71.8809 104.29C71.8809 108.932 75.6483 112.7 80.2902 112.7C84.9322 112.7 88.6995 108.932 88.6995 104.29C88.6995 99.6483 84.9322 95.8809 80.2902 95.8809Z" fill="#77BFB9"/>
<path d="M50.1585 95.8389C48.3319 95.8674 46.545 96.3786 44.9785 97.3211C43.4119 98.2635 42.1211 99.6037 41.2364 101.206C40.3518 99.6037 39.061 98.2635 37.4944 97.3211C35.9279 96.3786 34.141 95.8674 32.3144 95.8389C29.4024 95.9657 26.6589 97.243 24.6832 99.3916C22.7075 101.54 21.6602 104.385 21.7701 107.306C21.7701 118.325 39.5429 131.053 40.2988 131.593L41.2364 132.258L42.1741 131.593C42.93 131.056 60.7028 118.325 60.7028 107.306C60.8127 104.385 59.7654 101.54 57.7897 99.3916C55.814 97.243 53.0705 95.9657 50.1585 95.8389Z" fill="#77BFB9"/>
<path d="M633.038 81.8163V98.1839C633.038 99.324 633.303 100.159 633.832 100.688C634.402 101.177 635.339 101.421 636.642 101.421H640.611V108.627H635.237C628.03 108.627 624.427 105.126 624.427 98.1229V81.8163H620.396V74.7928H624.427V66.4258H633.038V74.7928H640.611V81.8163H633.038Z" fill="#77BFB9"/>
<path d="M606.941 80.0451C608.04 78.2536 609.465 76.8489 611.216 75.831C613.008 74.8131 615.043 74.3042 617.323 74.3042V83.282H615.064C612.376 83.282 610.341 83.9131 608.956 85.1753C607.613 86.4374 606.941 88.6361 606.941 91.7712V108.627H598.391V74.7928H606.941V80.0451Z" fill="#77BFB9"/>
<path d="M574.469 109.177C571.211 109.177 568.28 108.465 565.674 107.04C563.068 105.574 561.012 103.518 559.506 100.871C558.04 98.2246 557.307 95.171 557.307 91.7101C557.307 88.2493 558.06 85.1957 559.567 82.5491C561.114 79.9026 563.211 77.8668 565.857 76.4418C568.504 74.976 571.456 74.2432 574.713 74.2432C577.97 74.2432 580.922 74.976 583.569 76.4418C586.215 77.8668 588.292 79.9026 589.798 82.5491C591.345 85.1957 592.119 88.2493 592.119 91.7101C592.119 95.171 591.325 98.2246 589.737 100.871C588.19 103.518 586.073 105.574 583.385 107.04C580.739 108.465 577.767 109.177 574.469 109.177ZM574.469 101.726C576.016 101.726 577.461 101.36 578.805 100.627C580.189 99.8533 581.289 98.7132 582.103 97.2067C582.917 95.7003 583.324 93.8681 583.324 91.7101C583.324 88.4936 582.469 86.0303 580.759 84.3203C579.09 82.5695 577.034 81.6941 574.591 81.6941C572.148 81.6941 570.092 82.5695 568.422 84.3203C566.794 86.0303 565.98 88.4936 565.98 91.7101C565.98 94.9267 566.774 97.4103 568.361 99.1611C569.99 100.871 572.026 101.726 574.469 101.726Z" fill="#77BFB9"/>
<path d="M526.604 79.6787C527.703 78.1315 529.21 76.849 531.123 75.8311C533.078 74.7725 535.297 74.2432 537.78 74.2432C540.671 74.2432 543.277 74.9557 545.598 76.3807C547.959 77.8058 549.812 79.8416 551.155 82.4881C552.54 85.0939 553.232 88.1272 553.232 91.588C553.232 95.0488 552.54 98.1228 551.155 100.81C549.812 103.457 547.959 105.513 545.598 106.978C543.277 108.444 540.671 109.177 537.78 109.177C535.297 109.177 533.098 108.668 531.184 107.65C529.312 106.632 527.785 105.35 526.604 103.803V124.751H518.054V74.7928H526.604V79.6787ZM544.498 91.588C544.498 89.5522 544.071 87.8014 543.216 86.3357C542.402 84.8292 541.302 83.6892 539.918 82.9156C538.574 82.142 537.109 81.7552 535.521 81.7552C533.974 81.7552 532.508 82.1623 531.123 82.9766C529.78 83.7502 528.68 84.8903 527.825 86.3968C527.011 87.9032 526.604 89.6744 526.604 91.7101C526.604 93.7459 527.011 95.517 527.825 97.0235C528.68 98.53 529.78 99.6904 531.123 100.505C532.508 101.278 533.974 101.665 535.521 101.665C537.109 101.665 538.574 101.258 539.918 100.444C541.302 99.6293 542.402 98.4689 543.216 96.9624C544.071 95.456 544.498 93.6645 544.498 91.588Z" fill="#77BFB9"/>
<path d="M485.213 79.6787C486.313 78.1315 487.819 76.849 489.733 75.8311C491.687 74.7725 493.906 74.2432 496.39 74.2432C499.281 74.2432 501.886 74.9557 504.207 76.3807C506.569 77.8058 508.421 79.8416 509.765 82.4881C511.149 85.0939 511.841 88.1272 511.841 91.588C511.841 95.0488 511.149 98.1228 509.765 100.81C508.421 103.457 506.569 105.513 504.207 106.978C501.886 108.444 499.281 109.177 496.39 109.177C493.906 109.177 491.707 108.668 489.794 107.65C487.921 106.632 486.394 105.35 485.213 103.803V124.751H476.663V74.7928H485.213V79.6787ZM503.108 91.588C503.108 89.5522 502.68 87.8014 501.825 86.3357C501.011 84.8292 499.912 83.6892 498.527 82.9156C497.184 82.142 495.718 81.7552 494.13 81.7552C492.583 81.7552 491.117 82.1623 489.733 82.9766C488.389 83.7502 487.29 84.8903 486.435 86.3968C485.621 87.9032 485.213 89.6744 485.213 91.7101C485.213 93.7459 485.621 95.517 486.435 97.0235C487.29 98.53 488.389 99.6904 489.733 100.505C491.117 101.278 492.583 101.665 494.13 101.665C495.718 101.665 497.184 101.258 498.527 100.444C499.912 99.6293 501.011 98.4689 501.825 96.9624C502.68 95.456 503.108 93.6645 503.108 91.588Z" fill="#77BFB9"/>
<path d="M468.226 74.793V108.628H459.615V104.352C458.516 105.818 457.07 106.979 455.279 107.834C453.528 108.648 451.614 109.055 449.538 109.055C446.891 109.055 444.55 108.505 442.514 107.406C440.479 106.266 438.87 104.617 437.69 102.459C436.55 100.261 435.979 97.6548 435.979 94.6418V74.793H444.53V93.4203C444.53 96.1076 445.202 98.1841 446.545 99.6498C447.889 101.075 449.721 101.787 452.042 101.787C454.403 101.787 456.256 101.075 457.599 99.6498C458.943 98.1841 459.615 96.1076 459.615 93.4203V74.793H468.226Z" fill="#77BFB9"/>
<path d="M413.787 109.69C410.815 109.69 408.127 109.181 405.725 108.163C403.364 107.145 401.491 105.679 400.106 103.766C398.722 101.852 398.009 99.5924 397.969 96.9866H407.13C407.252 98.7374 407.863 100.122 408.962 101.14C410.102 102.158 411.649 102.666 413.604 102.666C415.599 102.666 417.166 102.198 418.306 101.262C419.446 100.285 420.016 99.0224 420.016 97.4752C420.016 96.213 419.629 95.1748 418.856 94.3605C418.082 93.5462 417.105 92.9151 415.924 92.4672C414.784 91.9786 413.196 91.4493 411.161 90.8793C408.392 90.065 406.132 89.271 404.381 88.4974C402.671 87.6831 401.185 86.482 399.923 84.8941C398.702 83.2655 398.091 81.1076 398.091 78.4204C398.091 75.896 398.722 73.6973 399.984 71.8244C401.246 69.9515 403.017 68.5265 405.298 67.5493C407.578 66.5314 410.183 66.0225 413.115 66.0225C417.512 66.0225 421.075 67.1014 423.803 69.2593C426.571 71.3766 428.098 74.3488 428.383 78.1761H418.978C418.897 76.7103 418.265 75.5092 417.085 74.5727C415.945 73.5956 414.418 73.107 412.504 73.107C410.835 73.107 409.491 73.5345 408.473 74.3895C407.496 75.2445 407.008 76.4864 407.008 78.115C407.008 79.255 407.374 80.2118 408.107 80.9854C408.881 81.7183 409.817 82.329 410.916 82.8176C412.056 83.2655 413.644 83.7948 415.68 84.4055C418.449 85.2198 420.708 86.0342 422.459 86.8485C424.21 87.6628 425.716 88.8842 426.979 90.5129C428.241 92.1415 428.872 94.2791 428.872 96.9256C428.872 99.2056 428.281 101.323 427.101 103.277C425.92 105.232 424.19 106.799 421.91 107.98C419.629 109.12 416.922 109.69 413.787 109.69Z" fill="#77BFB9"/>
<path d="M337.227 107.575V97.6164L367.012 55.2471H381.859V96.53H389.875V107.575H381.859V120.431H369.107V107.575H337.227ZM369.927 68.827L351.254 96.53H369.927V68.827Z" fill="#77BFB9"/>
<path d="M313.225 74.9248C317.256 74.9248 320.513 76.2073 322.997 78.7724C325.48 81.2968 326.722 84.839 326.722 89.3992V109.248H318.172V90.5596C318.172 87.8724 317.5 85.8162 316.157 84.3912C314.813 82.9254 312.981 82.1925 310.66 82.1925C308.299 82.1925 306.426 82.9254 305.041 84.3912C303.698 85.8162 303.026 87.8724 303.026 90.5596V109.248H294.476V75.4134H303.026V79.6275C304.166 78.1617 305.611 77.0217 307.362 76.2073C309.154 75.3523 311.108 74.9248 313.225 74.9248Z" fill="#77BFB9"/>
<path d="M250.885 92.2091C250.885 88.789 251.557 85.7557 252.901 83.1092C254.285 80.4626 256.138 78.4269 258.458 77.0018C260.82 75.5768 263.446 74.8643 266.337 74.8643C268.861 74.8643 271.06 75.3732 272.933 76.3911C274.846 77.409 276.373 78.6915 277.513 80.2387V75.4139H286.125V109.249H277.513V104.302C276.414 105.89 274.887 107.213 272.933 108.271C271.019 109.289 268.8 109.798 266.276 109.798C263.426 109.798 260.82 109.065 258.458 107.6C256.138 106.134 254.285 104.078 252.901 101.431C251.557 98.7439 250.885 95.6699 250.885 92.2091ZM277.513 92.3312C277.513 90.2547 277.106 88.4836 276.292 87.0179C275.477 85.5114 274.378 84.3713 272.994 83.5977C271.609 82.7834 270.123 82.3763 268.535 82.3763C266.948 82.3763 265.482 82.7631 264.138 83.5367C262.795 84.3103 261.695 85.4503 260.84 86.9568C260.026 88.4225 259.619 90.1733 259.619 92.2091C259.619 94.2449 260.026 96.0364 260.84 97.5835C261.695 99.09 262.795 100.25 264.138 101.065C265.523 101.879 266.988 102.286 268.535 102.286C270.123 102.286 271.609 101.899 272.994 101.126C274.378 100.311 275.477 99.1715 276.292 97.7057C277.106 96.1992 277.513 94.4077 277.513 92.3312Z" fill="#77BFB9"/>
<path d="M214.146 92.3312C214.146 88.8297 214.858 85.776 216.283 83.1702C217.708 80.5237 219.683 78.4879 222.207 77.0629C224.732 75.5971 227.622 74.8643 230.88 74.8643C235.073 74.8643 238.534 75.9229 241.262 78.0401C244.031 80.1166 245.883 83.0481 246.82 86.8346H237.598C237.109 85.3689 236.274 84.2288 235.094 83.4145C233.954 82.5595 232.529 82.132 230.819 82.132C228.376 82.132 226.442 83.0277 225.017 84.8192C223.592 86.57 222.879 89.074 222.879 92.3312C222.879 95.5478 223.592 98.0518 225.017 99.8433C226.442 101.594 228.376 102.469 230.819 102.469C234.279 102.469 236.539 100.922 237.598 97.8278H246.82C245.883 101.492 244.031 104.403 241.262 106.561C238.493 108.719 235.033 109.798 230.88 109.798C227.622 109.798 224.732 109.086 222.207 107.661C219.683 106.195 217.708 104.159 216.283 101.553C214.858 98.9068 214.146 95.8328 214.146 92.3312Z" fill="#77BFB9"/>
<path d="M193.846 109.69C190.874 109.69 188.187 109.181 185.785 108.163C183.423 107.145 181.55 105.679 180.166 103.766C178.782 101.852 178.069 99.5924 178.028 96.9867H187.189C187.311 98.7374 187.922 100.122 189.022 101.14C190.162 102.158 191.709 102.666 193.663 102.666C195.658 102.666 197.226 102.198 198.366 101.262C199.506 100.285 200.076 99.0224 200.076 97.4752C200.076 96.2131 199.689 95.1748 198.915 94.3605C198.142 93.5462 197.165 92.9151 195.984 92.4672C194.844 91.9786 193.256 91.4493 191.22 90.8793C188.452 90.065 186.192 89.2711 184.441 88.4975C182.731 87.6831 181.245 86.482 179.983 84.8941C178.761 83.2655 178.15 81.1076 178.15 78.4204C178.15 75.896 178.782 73.6973 180.044 71.8244C181.306 69.9515 183.077 68.5265 185.357 67.5493C187.637 66.5314 190.243 66.0225 193.175 66.0225C197.572 66.0225 201.134 67.1014 203.862 69.2593C206.631 71.3766 208.158 74.3488 208.443 78.1761H199.038C198.956 76.7103 198.325 75.5092 197.144 74.5727C196.004 73.5956 194.477 73.107 192.564 73.107C190.894 73.107 189.551 73.5345 188.533 74.3895C187.556 75.2445 187.067 76.4864 187.067 78.115C187.067 79.255 187.434 80.2118 188.166 80.9854C188.94 81.7183 189.877 82.329 190.976 82.8176C192.116 83.2655 193.704 83.7948 195.74 84.4055C198.508 85.2199 200.768 86.0342 202.519 86.8485C204.27 87.6628 205.776 88.8843 207.038 90.5129C208.3 92.1415 208.931 94.2791 208.931 96.9256C208.931 99.2056 208.341 101.323 207.16 103.277C205.98 105.232 204.249 106.799 201.969 107.98C199.689 109.12 196.981 109.69 193.846 109.69Z" fill="#77BFB9"/>
</g>
<defs>
<clipPath id="clip0_1459_38">
<rect width="640" height="180" fill="white"/>
</clipPath>
</defs>
</svg>
